<?xml version="1.0" standalone="no"?>
<!DOCTYPE svg PUBLIC "-//W3C//DTD SVG 20010904//EN"
 "http://www.w3.org/TR/2001/REC-SVG-20010904/DTD/svg10.dtd">
<svg version="1.0" xmlns="http://www.w3.org/2000/svg"
 width="259.000000pt" height="259.000000pt" viewBox="0 0 259.000000 259.000000"
 preserveAspectRatio="xMidYMid meet">
<metadata>
Created by potrace 1.11, written by Peter Selinger 2001-2013
</metadata>
<g transform="translate(0.000000,259.000000) scale(0.100000,-0.100000)"
fill="#000000" stroke="none">
<path d="M1550 2527 c-13 -7 -43 -45 -65 -84 l-41 -72 -89 49 c-55 30 -97 47
-108 44 -10 -3 -61 9 -113 27 l-95 33 -25 -25 c-20 -21 -25 -38 -31 -107 l-6
-82 -103 0 c-57 0 -105 -4 -108 -9 -3 -5 -39 -12 -81 -16 -155 -14 -167 -28
-124 -143 16 -42 29 -80 29 -84 0 -4 -35 -25 -77 -47 -110 -55 -273 -168 -273
-189 0 -9 -34 -49 -77 -88 -74 -68 -77 -73 -68 -100 7 -19 34 -45 80 -76 39
-26 69 -51 68 -55 -1 -5 -22 -45 -48 -90 -25 -46 -44 -87 -40 -92 3 -5 -12
-54 -34 -108 l-39 -98 21 -22 c17 -17 43 -26 105 -35 l83 -11 -1 -101 c0 -160
18 -308 41 -326 11 -10 26 -48 39 -105 30 -131 56 -142 173 -75 38 22 71 39
72 38 1 -2 26 -42 56 -90 30 -49 61 -88 69 -88 8 0 44 -36 80 -80 39 -48 70
-78 78 -75 8 3 20 5 27 5 8 0 38 33 67 74 l53 74 87 -53 c47 -30 88 -52 91
-49 2 2 48 -14 101 -37 82 -35 100 -40 119 -30 18 9 40 5 119 -18 l97 -29 27
35 c25 33 26 40 21 113 l-6 77 102 8 c66 4 108 12 118 21 9 8 59 23 110 33 86
16 95 20 108 46 13 27 11 34 -27 110 l-40 82 85 49 c47 27 89 57 94 66 5 10
45 45 90 78 102 78 100 88 -33 195 l-38 30 48 75 c69 107 145 275 138 304 -3
13 7 63 24 117 l29 94 -26 27 c-25 26 -32 28 -110 28 l-83 0 0 97 c0 67 -4
101 -14 112 -7 9 -19 52 -25 96 -18 118 -20 123 -50 133 -23 8 -42 4 -106 -24
-43 -19 -80 -32 -83 -29 -3 2 -25 40 -51 83 -73 125 -180 262 -205 262 -13 0
-48 27 -91 70 -38 39 -74 70 -80 70 -5 0 -21 -6 -35 -13z"/>
</g>
</svg>
